# xmcd
#
# Track frame offsets:
# 150
# 19372
# 38914
# 56743
# 72259
# 84908
# 104245
# 121785
# 140317
# 157202
# 174898
# 193350
# 209514
#
# Disc length: 3093 seconds
#
#
# Revision: 0
# Processed by: cddbd v1.5.1PL0 Copyright (c) Steve Scherf et al.
# Submitted via: FreeRIP 2.941 
#
DISCID=c00c130d
DTITLE=Fantasia - Free Yourself
DYEAR=2004
DGENRE=R&B
TTITLE0=Ain't Gon' Beg You
TTITLE1=Free Yourself
TTITLE2=Truth Is
TTITLE3=Selfish (I Want U 2 Myself) (Featuring Missy Elliott)
TTITLE4=Summertime
TTITLE5=Baby Mama
TTITLE6=Got Me Waiting
TTITLE7=It's All Good
TTITLE8=Good Lovin'
TTITLE9=Don't Act Right (Featuring Jazze Pha)
TTITLE10=You Were Always On My Mind
TTITLE11=This Is Me
TTITLE12=I Believe
EXTD=Info by G.O.K.I. (http://gokimusic.cjb.net)
EXTT0=by G.O.K.I. (http://gokimusic.cjb.net)
EXTT1=Info by G.O.K.I. (http://gokimusic.cjb.net)
EXTT2=Info by G.O.K.I. (http://gokimusic.cjb.net)
EXTT3=Info by G.O.K.I. (http://gokimusic.cjb.net)
EXTT4=Info by G.O.K.I. (http://gokimusic.cjb.net)
EXTT5=Info by G.O.K.I. (http://gokimusic.cjb.net)
EXTT6=Info by G.O.K.I. (http://gokimusic.cjb.net)
EXTT7=Info by G.O.K.I. (http://gokimusic.cjb.net)
EXTT8=Info by G.O.K.I. (http://gokimusic.cjb.net)
EXTT9=Info by G.O.K.I. (http://gokimusic.cjb.net)
EXTT10=Info by G.O.K.I. (http://gokimusic.cjb.net)
EXTT11=Info by G.O.K.I. (http://gokimusic.cjb.net)
EXTT12=Info by G.O.K.I. (http://gokimusic.cjb.net)
PLAYORDER=
